<?xml version="1.0" encoding="UTF-8" standalone="no"?>
<svg
   xmlns:dc="http://purl.org/dc/elements/1.1/"
   xmlns:cc="http://creativecommons.org/ns#"
   xmlns:rdf="http://www.w3.org/1999/02/22-rdf-syntax-ns#"
   xmlns:svg="http://www.w3.org/2000/svg"
   xmlns="http://www.w3.org/2000/svg"
   xmlns:sodipodi="http://sodipodi.sourceforge.net/DTD/sodipodi-0.dtd"
   xmlns:inkscape="http://www.inkscape.org/namespaces/inkscape"
   width="109.1875"
   height="110.25"
   version="1.1"
   id="svg2"
   inkscape:version="0.91 r13725"
   sodipodi:docname="about.svg"
   inkscape:export-filename="/home/matheus/Dropbox/Freedom/PyLoca/src/views/uis/images/about.png"
   inkscape:export-xdpi="13.061225"
   inkscape:export-ydpi="13.061225">
  <defs
     id="defs14" />
  <sodipodi:namedview
     pagecolor="#ffffff"
     bordercolor="#666666"
     borderopacity="1"
     objecttolerance="10"
     gridtolerance="10"
     guidetolerance="10"
     inkscape:pageopacity="0"
     inkscape:pageshadow="2"
     inkscape:window-width="1920"
     inkscape:window-height="1016"
     id="namedview12"
     showgrid="false"
     fit-margin-top="0"
     fit-margin-left="0"
     fit-margin-right="0"
     fit-margin-bottom="0"
     inkscape:zoom="1.84375"
     inkscape:cx="-66.355403"
     inkscape:cy="54.040254"
     inkscape:window-x="0"
     inkscape:window-y="27"
     inkscape:window-maximized="1"
     inkscape:current-layer="svg2" />
  <title
     id="title4">Emblem Important</title>
  <desc
     id="desc6">This is shape (source) for Clarity vector icon theme for gtk</desc>
  <metadata
     id="metadata8">
    <rdf:RDF>
      <cc:Work
         rdf:about="">
        <dc:title>Emblem Important</dc:title>
        <dc:description>This is shape (source) for Clarity vector icon theme for gtk</dc:description>
        <dc:creator>
          <cc:Agent>
            <dc:title>Jakub Jankiewicz</dc:title>
          </cc:Agent>
        </dc:creator>
        <dc:rights>
          <cc:Agent>
            <dc:title>Jakub Jankiewicz</dc:title>
          </cc:Agent>
        </dc:rights>
        <dc:date>2010</dc:date>
        <dc:format>image/svg+xml</dc:format>
        <dc:type
           rdf:resource="http://purl.org/dc/dcmitype/StillImage" />
        <cc:license
           rdf:resource="http://www.gnu.org/copyleft/gpl.html" />
      </cc:Work>
    </rdf:RDF>
  </metadata>
  <path
     d="M 54.5625,0 C 24.42154,0 0,24.707364 0,55.15625 0,85.605137 24.42154,110.25 54.5625,110.25 c 30.14096,0 54.625,-24.644864 54.625,-55.09375 C 109.1875,24.707364 84.70346,0 54.5625,0 Z m -0.65625,22.09375 c 2.638415,6.6e-5 4.719621,0.81726 6.21875,2.40625 1.52907,1.589116 2.28122,3.706647 2.28125,6.375 -3e-5,3.657877 -0.68461,8.641295 -2.09375,14.9375 -1.589076,7.255717 -2.511427,12.206618 -2.78125,14.875 -0.05998,1.679026 -0.126284,3.384791 -0.15625,5.09375 -0.179909,2.278664 -0.761872,3.679089 -1.78125,4.21875 -0.389782,0.239875 -0.867852,0.375017 -1.4375,0.375 -1.379191,1.7e-5 -2.230171,-1.091266 -2.5,-3.25 -0.02999,-0.209854 -0.03126,-1.812994 -0.03125,-4.78125 -1e-5,-5.456722 -1.161401,-13.276045 -3.5,-23.5 -0.899471,-3.987574 -1.343755,-6.615694 -1.34375,-7.875 -5e-6,-2.278585 0.581958,-4.290956 1.78125,-6 1.349189,-1.918793 3.12506,-2.874934 5.34375,-2.875 z m 0.0625,53 c 1.858879,1.3e-5 3.463287,0.546922 4.8125,1.65625 1.439124,1.199296 2.15623,2.702347 2.15625,4.53125 -2e-5,2.008809 -0.64829,3.67952 -1.9375,4.96875 -1.259271,1.289227 -2.89746,1.90625 -4.90625,1.90625 -1.679012,0 -3.147009,-0.615753 -4.40625,-1.875 -1.259258,-1.259248 -1.875006,-2.727245 -1.875,-4.40625 -6e-6,-1.798922 0.580689,-3.369544 1.75,-4.71875 1.169295,-1.379167 2.637292,-2.062487 4.40625,-2.0625 z"
     style="fill:#ffffff"
     id="path10"
     inkscape:connector-curvature="0" />
</svg>
