<?xml version="1.0" encoding="UTF-8" standalone="no"?>
<svg
   xmlns:dc="http://purl.org/dc/elements/1.1/"
   xmlns:cc="http://creativecommons.org/ns#"
   xmlns:rdf="http://www.w3.org/1999/02/22-rdf-syntax-ns#"
   xmlns:svg="http://www.w3.org/2000/svg"
   xmlns="http://www.w3.org/2000/svg"
   xmlns:sodipodi="http://sodipodi.sourceforge.net/DTD/sodipodi-0.dtd"
   xmlns:inkscape="http://www.inkscape.org/namespaces/inkscape"
   width="107.6875"
   height="107.6875"
   version="1.1"
   id="svg2"
   inkscape:version="0.48.5 r10040"
   sodipodi:docname="idjc.svg">
  <defs
     id="defs14" />
  <sodipodi:namedview
     pagecolor="#ffffff"
     bordercolor="#666666"
     borderopacity="1"
     objecttolerance="10"
     gridtolerance="10"
     guidetolerance="10"
     inkscape:pageopacity="0"
     inkscape:pageshadow="2"
     inkscape:window-width="1920"
     inkscape:window-height="1023"
     id="namedview12"
     showgrid="false"
     fit-margin-top="0"
     fit-margin-left="0"
     fit-margin-right="0"
     fit-margin-bottom="0"
     inkscape:zoom="0.921875"
     inkscape:cx="150.47802"
     inkscape:cy="208.57048"
     inkscape:window-x="0"
     inkscape:window-y="0"
     inkscape:window-maximized="1"
     inkscape:current-layer="svg2" />
  <title
     id="title4">Idjc Icon</title>
  <desc
     id="desc6">This is shape (source) for Clarity vector icon theme for gtk</desc>
  <metadata
     id="metadata8">
    <rdf:RDF>
      <cc:Work
         rdf:about="">
        <dc:title>Idjc Icon</dc:title>
        <dc:description>This is shape (source) for Clarity vector icon theme for gtk</dc:description>
        <dc:creator>
          <cc:Agent>
            <dc:title>Jakub Jankiewicz</dc:title>
          </cc:Agent>
        </dc:creator>
        <dc:rights>
          <cc:Agent>
            <dc:title>Jakub Jankiewicz</dc:title>
          </cc:Agent>
        </dc:rights>
        <dc:date>2010</dc:date>
        <dc:format>image/svg+xml</dc:format>
        <dc:type
           rdf:resource="http://purl.org/dc/dcmitype/StillImage" />
        <cc:license
           rdf:resource="http://www.gnu.org/copyleft/gpl.html" />
      </cc:Work>
    </rdf:RDF>
  </metadata>
  <g
     id="g2998"
     transform="translate(-10.15625,-10.15625)">
    <path
       id="path10"
       style="fill:#1a1a1a"
       d="m 64,10.15625 c -29.732587,0 -53.84375,24.111163 -53.84375,53.84375 0,14.588324 5.825015,27.802243 15.25,37.5 l 19.625,-31.5625 C 44.444925,68.0623 44.125,66.068423 44.125,64 44.125,53.023453 53.023453,44.125 64,44.125 c 1.878702,0 3.683498,0.294097 5.40625,0.78125 L 84.875,14.34375 C 78.457589,11.642831 71.398406,10.15625 64,10.15625 z m 23.5,5.40625 -2.625,13.96875 14.5625,-6.0625 C 95.847303,20.326412 91.836481,17.670566 87.5,15.5625 z M 103.875,27.84375 83.5625,60.5 c 0.20221,1.137142 0.3125,2.304773 0.3125,3.5 0,10.976547 -8.898453,19.875 -19.875,19.875 -1.195227,0 -2.362858,-0.11029 -3.5,-0.3125 l -15.5625,30.78125 c 5.929535,2.24752 12.346151,3.5 19.0625,3.5 29.732587,0 53.84375,-24.111163 53.84375,-53.84375 0,-13.921324 -5.29498,-26.597575 -13.96875,-36.15625 z m -17.1875,14 L 72.875,46.25 c 5.47651,2.742772 9.509958,7.914881 10.65625,14.125 L 86.6875,41.84375 z M 45.96875,72.3125 43.6875,85.71875 l 11.84375,-3.75 C 51.309548,79.97691 47.925644,76.553784 45.96875,72.3125 z M 45.5,98.0625 29.03125,104.90625 c 4.055035,3.47082 8.597967,6.37872 13.5625,8.53125 L 45.5,98.0625 z"
       inkscape:connector-curvature="0" />
    <path
       id="path10-3"
       style="fill:#00ff00"
       d="m 94.728338,74.486191 c -11.761459,0 -21.298509,9.537037 -21.298509,21.298496 0,11.761473 9.53705,21.298513 21.298509,21.298513 11.761462,0 21.298512,-9.53704 21.298512,-21.298513 0,-11.761459 -9.53705,-21.298496 -21.298512,-21.298496 z m 10.743622,9.103038 4.51523,3.513448 -16.246101,20.877483 -0.116191,-0.0872 -4.39908,-3.42635 -9.741848,-7.56409 3.513461,-4.515217 9.741848,7.56409 12.732641,-16.36225 z"
       inkscape:connector-curvature="0" />
  </g>
</svg>
