<?xml version="1.0" encoding="UTF-8" standalone="no"?>
<svg
   xmlns:dc="http://purl.org/dc/elements/1.1/"
   xmlns:cc="http://creativecommons.org/ns#"
   xmlns:rdf="http://www.w3.org/1999/02/22-rdf-syntax-ns#"
   xmlns:svg="http://www.w3.org/2000/svg"
   xmlns="http://www.w3.org/2000/svg"
   xmlns:sodipodi="http://sodipodi.sourceforge.net/DTD/sodipodi-0.dtd"
   xmlns:inkscape="http://www.inkscape.org/namespaces/inkscape"
   width="73.821236"
   height="99.849045"
   version="1.1"
   id="svg2"
   inkscape:version="0.91 r13725"
   sodipodi:docname="delete.svg"
   inkscape:export-filename="/home/matheus/Dropbox/Freedom/PyLoca/src/views/uis/images/delete.png"
   inkscape:export-xdpi="14.629936"
   inkscape:export-ydpi="14.629936">
  <defs
     id="defs14" />
  <sodipodi:namedview
     pagecolor="#ffffff"
     bordercolor="#666666"
     borderopacity="1"
     objecttolerance="10"
     gridtolerance="10"
     guidetolerance="10"
     inkscape:pageopacity="0"
     inkscape:pageshadow="2"
     inkscape:window-width="1920"
     inkscape:window-height="1016"
     id="namedview12"
     showgrid="false"
     fit-margin-top="0"
     fit-margin-left="0"
     fit-margin-right="0"
     fit-margin-bottom="0"
     inkscape:zoom="1.84375"
     inkscape:cx="37.995362"
     inkscape:cy="49.92452"
     inkscape:window-x="0"
     inkscape:window-y="27"
     inkscape:window-maximized="1"
     inkscape:current-layer="svg2" />
  <title
     id="title4">Clarity Icon</title>
  <desc
     id="desc6">This is shape (source) for Clarity vector icon theme for gtk</desc>
  <metadata
     id="metadata8">
    <rdf:RDF>
      <cc:Work
         rdf:about="">
        <dc:title>Clarity Icon</dc:title>
        <dc:description>This is shape (source) for Clarity vector icon theme for gtk</dc:description>
        <dc:creator>
          <cc:Agent>
            <dc:title>Jakub Jankiewicz</dc:title>
          </cc:Agent>
        </dc:creator>
        <dc:rights>
          <cc:Agent>
            <dc:title>Jakub Jankiewicz</dc:title>
          </cc:Agent>
        </dc:rights>
        <dc:date>2010</dc:date>
        <dc:format>image/svg+xml</dc:format>
        <dc:type
           rdf:resource="http://purl.org/dc/dcmitype/StillImage" />
        <cc:license
           rdf:resource="http://www.gnu.org/copyleft/gpl.html" />
      </cc:Work>
    </rdf:RDF>
  </metadata>
  <path
     d="m 30.31842,0 c -3.481607,0 -6.279635,2.798032 -6.279635,6.279635 l 0,0.909269 25.743662,0 0,-0.909269 C 49.782447,2.798032 46.984428,0 43.502812,0 L 30.31842,0 Z M 12.474026,9.121099 C 5.570415,9.121099 0,14.663103 0,21.566711 l 0,0.454634 73.821236,0 0,-0.454634 c 0,-6.903608 -5.570419,-12.445612 -12.47403,-12.445612 l -48.87318,0 z m -6.847928,15.173418 0,67.001714 c 0,4.73635 3.816464,8.55281 8.552807,8.55281 l 45.491837,0 c 4.736343,0 8.552806,-3.81646 8.552806,-8.55281 l 0,-67.001714 -62.59745,0 z m 13.468539,9.547318 c 1.539901,0 2.784635,1.244733 2.784635,2.784635 l 0,50.890621 c 0,1.5399 -1.244734,2.78463 -2.784635,2.78463 -1.5399,0 -2.784634,-1.24473 -2.784634,-2.78463 l 0,-50.890621 c 0,-1.539902 1.244734,-2.784635 2.784634,-2.784635 z m 17.815979,0 c 1.539901,0 2.784635,1.244733 2.784635,2.784635 l 0,50.890621 c 0,1.5399 -1.244734,2.78463 -2.784635,2.78463 -1.539901,0 -2.784635,-1.24473 -2.784635,-2.78463 l 0,-50.890621 c 0,-1.539902 1.244734,-2.784635 2.784635,-2.784635 z m 17.815979,0 c 1.5399,0 2.784634,1.244733 2.784634,2.784635 l 0,50.890621 c 0,1.5399 -1.244734,2.78463 -2.784634,2.78463 -1.539901,0 -2.784635,-1.24473 -2.784635,-2.78463 l 0,-50.890621 c 0,-1.539902 1.244734,-2.784635 2.784635,-2.784635 z"
     style="fill:#1a1a1a"
     id="path10"
     inkscape:connector-curvature="0" />
</svg>
