<?xml version="1.0" encoding="UTF-8" standalone="no"?>
<svg
   xmlns:dc="http://purl.org/dc/elements/1.1/"
   xmlns:cc="http://creativecommons.org/ns#"
   xmlns:rdf="http://www.w3.org/1999/02/22-rdf-syntax-ns#"
   xmlns:svg="http://www.w3.org/2000/svg"
   xmlns="http://www.w3.org/2000/svg"
   xmlns:sodipodi="http://sodipodi.sourceforge.net/DTD/sodipodi-0.dtd"
   xmlns:inkscape="http://www.inkscape.org/namespaces/inkscape"
   width="98.281258"
   height="93.4375"
   version="1.1"
   id="svg2"
   inkscape:version="0.48.5 r10040"
   sodipodi:docname="dependent.svg"
   inkscape:export-filename="/home/matheus/Dropbox/Freedom/PyLoca/src/views/uis/images/dependents.png"
   inkscape:export-xdpi="20.227425"
   inkscape:export-ydpi="20.227425">
  <defs
     id="defs14" />
  <sodipodi:namedview
     pagecolor="#ffffff"
     bordercolor="#666666"
     borderopacity="1"
     objecttolerance="10"
     gridtolerance="10"
     guidetolerance="10"
     inkscape:pageopacity="0"
     inkscape:pageshadow="2"
     inkscape:window-width="1920"
     inkscape:window-height="1023"
     id="namedview12"
     showgrid="false"
     fit-margin-top="0"
     fit-margin-left="0"
     fit-margin-right="0"
     fit-margin-bottom="0"
     inkscape:zoom="1.3037281"
     inkscape:cx="73.326623"
     inkscape:cy="91.650391"
     inkscape:window-x="0"
     inkscape:window-y="0"
     inkscape:window-maximized="1"
     inkscape:current-layer="svg2" />
  <title
     id="title4">Clarity Icon</title>
  <desc
     id="desc6">This is shape (source) for Clarity vector icon theme for gtk</desc>
  <metadata
     id="metadata8">
    <rdf:RDF>
      <cc:Work
         rdf:about="">
        <dc:title>Clarity Icon</dc:title>
        <dc:description>This is shape (source) for Clarity vector icon theme for gtk</dc:description>
        <dc:creator>
          <cc:Agent>
            <dc:title>Jakub Jankiewicz</dc:title>
          </cc:Agent>
        </dc:creator>
        <dc:rights>
          <cc:Agent>
            <dc:title>Jakub Jankiewicz</dc:title>
          </cc:Agent>
        </dc:rights>
        <dc:date>2010</dc:date>
        <dc:format>image/svg+xml</dc:format>
        <dc:type
           rdf:resource="http://purl.org/dc/dcmitype/StillImage" />
        <cc:license
           rdf:resource="http://www.gnu.org/copyleft/gpl.html" />
      </cc:Work>
    </rdf:RDF>
  </metadata>
  <g
     id="g2999"
     transform="translate(-14.859372,-17.28125)">
    <path
       id="path2997"
       d="m 81.109373,17.28125 c -9.777973,0 -17.656251,10.030076 -17.656251,22.375 0,12.344926 7.878278,22.375 17.656251,22.375 9.77794,0 17.71875,-10.030074 17.71875,-22.375 0,-12.344924 -7.94081,-22.375 -17.71875,-22.375 z"
       style="fill:#1a1a1a"
       inkscape:connector-curvature="0" />
    <path
       id="path2995"
       d="m 41.078122,22.0625 c -8.00799,0 -14.46875,8.233471 -14.46875,18.34375 0,10.110281 6.46076,18.3125 14.46875,18.3125 8.007964,0 14.5,-8.202219 14.5,-18.3125 0,-10.110279 -6.492036,-18.34375 -14.5,-18.34375 z"
       style="fill:#ff6600"
       inkscape:connector-curvature="0" />
    <path
       id="path2993"
       d="m 55.671872,64.6875 c -1.084349,0.01779 -2.16966,0.96244 -3.28125,2.8125 -2.524334,4.201348 -6.902298,6.40625 -11.3125,6.40625 -4.305998,0 -8.233803,-2.299966 -11.09375,-6.09375 -2.401309,-3.185391 -5.071294,-2.974064 -6.875,-0.03125 -4.747572,7.745847 -7.588892,18.627788 -8.25,30.8125 l 30.71875,0 c 1.677101,-10.696397 4.855554,-20.289186 9.5625,-27.96875 0.852688,-1.39119 2.043638,-2.68634 3.46875,-3.625 -1.016878,-1.549136 -1.972608,-2.32833 -2.9375,-2.3125 z"
       style="fill:#ff6600"
       inkscape:connector-curvature="0" />
    <path
       id="path10"
       d="m 98.921873,69.3125 c -1.324021,0.02172 -2.64272,1.178527 -4,3.4375 -3.08228,5.129959 -8.427525,7.8125 -13.8125,7.8125 -5.257741,0 -10.039178,-2.805187 -13.53125,-7.4375 -2.932064,-3.889448 -6.203877,-3.624501 -8.406251,-0.03125 -5.796914,9.457889 -9.255269,22.747137 -10.0625,37.625 l 64.031258,0 C 112.28018,95.7478 108.62524,82.425102 102.98438,72.8125 c -1.414,-2.409613 -2.73848,-3.521722 -4.062507,-3.5 z"
       style="fill:#1a1a1a"
       inkscape:connector-curvature="0" />
  </g>
</svg>
