<?xml version="1.0" encoding="UTF-8" standalone="no"?>
<svg
   xmlns:dc="http://purl.org/dc/elements/1.1/"
   xmlns:cc="http://creativecommons.org/ns#"
   xmlns:rdf="http://www.w3.org/1999/02/22-rdf-syntax-ns#"
   xmlns:svg="http://www.w3.org/2000/svg"
   xmlns="http://www.w3.org/2000/svg"
   xmlns:sodipodi="http://sodipodi.sourceforge.net/DTD/sodipodi-0.dtd"
   xmlns:inkscape="http://www.inkscape.org/namespaces/inkscape"
   width="110.14145"
   height="108.38496"
   version="1.1"
   id="svg2"
   inkscape:version="0.91 r13725"
   sodipodi:docname="edit.svg"
   inkscape:export-filename="/home/matheus/Dropbox/Freedom/PyLoca/src/views/uis/images/edit.png"
   inkscape:export-xdpi="13.285976"
   inkscape:export-ydpi="13.285976">
  <defs
     id="defs14" />
  <sodipodi:namedview
     pagecolor="#ffffff"
     bordercolor="#666666"
     borderopacity="1"
     objecttolerance="10"
     gridtolerance="10"
     guidetolerance="10"
     inkscape:pageopacity="0"
     inkscape:pageshadow="2"
     inkscape:window-width="1920"
     inkscape:window-height="1016"
     id="namedview12"
     showgrid="false"
     fit-margin-top="0"
     fit-margin-left="0"
     fit-margin-right="0"
     fit-margin-bottom="0"
     inkscape:zoom="1.84375"
     inkscape:cx="56.155472"
     inkscape:cy="54.19248"
     inkscape:window-x="0"
     inkscape:window-y="27"
     inkscape:window-maximized="1"
     inkscape:current-layer="svg2" />
  <title
     id="title4">Save-As Icon</title>
  <desc
     id="desc6">This is shape (source) for Clarity vector icon theme for gtk</desc>
  <metadata
     id="metadata8">
    <rdf:RDF>
      <cc:Work
         rdf:about="">
        <dc:title>Save-As Icon</dc:title>
        <dc:description>This is shape (source) for Clarity vector icon theme for gtk</dc:description>
        <dc:creator>
          <cc:Agent>
            <dc:title>Jakub Jankiewicz</dc:title>
          </cc:Agent>
        </dc:creator>
        <dc:rights>
          <cc:Agent>
            <dc:title>Jakub Jankiewicz</dc:title>
          </cc:Agent>
        </dc:rights>
        <dc:date>2010</dc:date>
        <dc:format>image/svg+xml</dc:format>
        <dc:type
           rdf:resource="http://purl.org/dc/dcmitype/StillImage" />
        <cc:license
           rdf:resource="http://www.gnu.org/copyleft/gpl.html" />
      </cc:Work>
    </rdf:RDF>
  </metadata>
  <path
     d="m 97.218747,0.00996151 c -0.69945,0.05836 -1.44764,0.3851432 -2.03125,0.9687502 L 88.875,7.2912117 l 13.9375,13.9375003 6.34375,-6.3125 c 1.16722,-1.167213 1.31701,-2.870496 0.34375,-3.84375 L 99.062497,0.63496171 c -0.48663,-0.4866312 -1.1443,-0.6833572 -1.84375,-0.6250002 z M 7.1249997,8.8224617 C 3.1622397,8.8224617 0,11.984698 0,15.947462 l 0,73.84375 c 0,1.773369 0.59737,2.347369 1.6249997,3.374999 L 15.53125,107.07246 c 1.05639,1.05639 1.88579,1.3125 3.25,1.3125 l 76.968747,0 c 3.96276,0 7.125003,-3.19348 7.125003,-7.15625 l 0,-76.062498 -8.218753,8.21875 a 2.8488206,2.8488206 0 0 1 -1.0625,0.6875 2.8488206,2.8488206 0 0 1 -0.65625,1.03125 l -4.531247,4.53125 0,14.5 -15.21875,0 -20.84375,8.5625 c -0.50376,0.206891 -1.03178,0.396671 -1.75,0.4375 -0.71822,0.04083 -1.89183,-0.157309 -2.71875,-1.0625 -0.82692,-0.905191 -0.90228,-1.980261 -0.84375,-2.65625 0.05853,-0.675989 0.23289,-1.18929 0.4375,-1.6875 l 1.46875,-3.59375 -34.4375,0 0,-34.46875 57.96875,0 L 75,17.134962 a 2.8488206,2.8488206 0 0 1 1.0625,-0.6875 2.8488206,2.8488206 0 0 1 0.65625,-1 l 6.625,-6.6250003 -76.2187503,0 z m 80.0312503,0.1875 -8.4375,8.4375003 13.937497,13.9375 8.437503,-8.4375 L 87.15625,9.0099617 Z M 77,19.166212 61.40625,34.759962 75.375,48.697462 90.96875,33.103712 77,19.166212 Z m -17.34375,17.59375 c -0.32967,0.02101 -0.6214,0.329524 -0.78125,0.71875 l -8.78125,21.375 c -0.54748,1.333046 -0.14826,1.754499 1.15625,1.21875 l 21.25,-8.71875 c 0.83734,-0.343888 1.12932,-0.933185 0.6875,-1.375 L 60.28125,37.072462 c -0.22309,-0.223089 -0.4272,-0.325107 -0.625,-0.3125 z m -31.875,29.3125 42.9375,0 c 3.96276,0 7.15625,3.193486 7.15625,7.15625 l 0,20.374999 c 0,3.96276 -3.19349,7.156249 -7.15625,7.156249 l -42.9375,0 c -3.96276,0 -7.125,-3.193489 -7.125,-7.156249 l 0,-20.374999 c 0,-3.962764 3.16224,-7.15625 7.125,-7.15625 z m 2.9375,2.84375 0,23.874999 15.09375,0 0,-23.874999 -15.09375,0 z"
     style="fill:#1a1a1a"
     id="path10"
     inkscape:connector-curvature="0" />
</svg>
