<?xml version="1.0" encoding="UTF-8" standalone="no"?>
<svg
   xmlns:dc="http://purl.org/dc/elements/1.1/"
   xmlns:cc="http://creativecommons.org/ns#"
   xmlns:rdf="http://www.w3.org/1999/02/22-rdf-syntax-ns#"
   xmlns:svg="http://www.w3.org/2000/svg"
   xmlns="http://www.w3.org/2000/svg"
   xmlns:sodipodi="http://sodipodi.sourceforge.net/DTD/sodipodi-0.dtd"
   xmlns:inkscape="http://www.inkscape.org/namespaces/inkscape"
   width="102.13774"
   height="87.241226"
   version="1.1"
   id="svg2"
   inkscape:version="0.48.5 r10040"
   sodipodi:docname="user-home.svg">
  <defs
     id="defs14" />
  <sodipodi:namedview
     pagecolor="#ffffff"
     bordercolor="#666666"
     borderopacity="1"
     objecttolerance="10"
     gridtolerance="10"
     guidetolerance="10"
     inkscape:pageopacity="0"
     inkscape:pageshadow="2"
     inkscape:window-width="1920"
     inkscape:window-height="1023"
     id="namedview12"
     showgrid="false"
     fit-margin-top="0"
     fit-margin-left="0"
     fit-margin-right="0"
     fit-margin-bottom="0"
     inkscape:zoom="1.84375"
     inkscape:cx="52.079989"
     inkscape:cy="43.645023"
     inkscape:window-x="0"
     inkscape:window-y="0"
     inkscape:window-maximized="1"
     inkscape:current-layer="svg2" />
  <title
     id="title4">Clarity Icon</title>
  <desc
     id="desc6">This is shape (source) for Clarity vector icon theme for gtk</desc>
  <metadata
     id="metadata8">
    <rdf:RDF>
      <cc:Work
         rdf:about="">
        <dc:title>Clarity Icon</dc:title>
        <dc:description>This is shape (source) for Clarity vector icon theme for gtk</dc:description>
        <dc:creator>
          <cc:Agent>
            <dc:title>Jakub Jankiewicz</dc:title>
          </cc:Agent>
        </dc:creator>
        <dc:rights>
          <cc:Agent>
            <dc:title>Jakub Jankiewicz</dc:title>
          </cc:Agent>
        </dc:rights>
        <dc:date>2010</dc:date>
        <dc:format>image/svg+xml</dc:format>
        <dc:type
           rdf:resource="http://purl.org/dc/dcmitype/StillImage" />
        <cc:license
           rdf:resource="http://www.gnu.org/copyleft/gpl.html" />
      </cc:Work>
    </rdf:RDF>
  </metadata>
  <path
     d="M 51.007894,-0.404956 2.0693111,44.285991 c -4.647743,4.243683 -2.25777399,11.036593 3.521545,11.036595 l 7.6239629,0 0,20.729919 c 0,6.398009 5.146852,11.544859 11.544859,11.544859 l 53.077307,0 c 6.398006,0 11.544858,-5.14685 11.544858,-11.544859 l 0,-20.729919 7.04309,0 c 5.779317,0 8.132977,-6.792912 3.48524,-11.036595 l -16.046627,-14.667053 0,-25.376906 c 0,-1.033238 -0.818296,-1.851535 -1.851534,-1.851535 l -9.947456,0 c -1.033239,0 -1.851534,0.818297 -1.851534,1.851535 l 0,12.888128 -19.205128,-17.535116 z"
     style="fill:#aaaaaa"
     id="path10"
     inkscape:connector-curvature="0" />
  <path
     style="fill:#1a1a1a"
     d="m 21.65287,86.936444 c -2.230763,-0.46742 -5.386513,-3.20317 -6.750898,-5.85242 -1.334852,-2.591907 -1.39122,-3.101531 -1.565959,-14.158003 L 13.154749,55.456711 8.2585441,55.177541 C 3.7549001,54.920755 3.2418851,54.773603 1.8599741,53.342204 -0.28798489,51.117322 -0.53744089,49.378025 0.91461911,46.750848 1.7038021,45.322999 10.084448,37.316817 24.907107,23.830389 37.435921,12.431023 48.428136,2.405808 49.334252,1.552134 L 50.981736,0 60.452897,8.634335 c 5.209139,4.748884 9.646243,8.464303 9.860231,8.256486 0.213993,-0.207816 0.458061,-3.42446 0.542373,-7.148097 l 0.153301,-6.770249 5.615729,-0.15519 c 3.675227,-0.101564 5.877364,0.06195 6.372881,0.473191 0.608364,0.504895 0.761996,3.199967 0.781804,13.714512 l 0.02465,13.086131 8.366087,7.55406 c 10.129317,9.146145 11.264237,11.017541 8.966727,14.785538 -1.258667,2.064264 -3.667747,2.873343 -8.568557,2.877715 l -3.38983,0.003 -0.003,10.983051 c -0.002,6.040678 -0.24071,11.837288 -0.53123,12.881356 -0.73827,2.653295 -3.591362,5.920965 -6.207042,7.108985 -2.064677,0.93775 -4.072032,0.99876 -30.953621,0.94083 -15.81017,-0.0341 -29.233899,-0.16423 -29.830509,-0.28924 l 2.28e-4,0 z"
     id="path2991"
     inkscape:connector-curvature="0"
     inkscape:export-filename="/home/matheus/Dropbox/Freedom/PyLoca/src/views/uis/images/home.png"
     inkscape:export-xdpi="14.442713"
     inkscape:export-ydpi="14.442713" />
</svg>
