<?xml version="1.0" encoding="UTF-8" standalone="no"?>
<svg
   xmlns:dc="http://purl.org/dc/elements/1.1/"
   xmlns:cc="http://creativecommons.org/ns#"
   xmlns:rdf="http://www.w3.org/1999/02/22-rdf-syntax-ns#"
   xmlns:svg="http://www.w3.org/2000/svg"
   xmlns="http://www.w3.org/2000/svg"
   xmlns:sodipodi="http://sodipodi.sourceforge.net/DTD/sodipodi-0.dtd"
   xmlns:inkscape="http://www.inkscape.org/namespaces/inkscape"
   width="116.46875"
   height="93.3125"
   version="1.1"
   id="svg2"
   inkscape:version="0.48.5 r10040"
   sodipodi:docname="logout.svg"
   inkscape:export-filename="/home/matheus/Dropbox/Freedom/PyLoca/src/views/uis/images/logout.png"
   inkscape:export-xdpi="17.361017"
   inkscape:export-ydpi="17.361017">
  <defs
     id="defs14" />
  <sodipodi:namedview
     pagecolor="#ffffff"
     bordercolor="#666666"
     borderopacity="1"
     objecttolerance="10"
     gridtolerance="10"
     guidetolerance="10"
     inkscape:pageopacity="0"
     inkscape:pageshadow="2"
     inkscape:window-width="1920"
     inkscape:window-height="1020"
     id="namedview12"
     showgrid="false"
     fit-margin-top="0"
     fit-margin-left="0"
     fit-margin-right="0"
     fit-margin-bottom="0"
     inkscape:zoom="1.84375"
     inkscape:cx="55.888242"
     inkscape:cy="52.5625"
     inkscape:window-x="0"
     inkscape:window-y="0"
     inkscape:window-maximized="1"
     inkscape:current-layer="svg2" />
  <title
     id="title4">Clarity Icon</title>
  <desc
     id="desc6">This is shape (source) for Clarity vector icon theme for gtk</desc>
  <metadata
     id="metadata8">
    <rdf:RDF>
      <cc:Work
         rdf:about="">
        <dc:title>Clarity Icon</dc:title>
        <dc:description>This is shape (source) for Clarity vector icon theme for gtk</dc:description>
        <dc:creator>
          <cc:Agent>
            <dc:title>Jakub Jankiewicz</dc:title>
          </cc:Agent>
        </dc:creator>
        <dc:rights>
          <cc:Agent>
            <dc:title>Jakub Jankiewicz</dc:title>
          </cc:Agent>
        </dc:rights>
        <dc:date>2010</dc:date>
        <dc:format>image/svg+xml</dc:format>
        <dc:type
           rdf:resource="http://purl.org/dc/dcmitype/StillImage" />
        <cc:license
           rdf:resource="http://www.gnu.org/copyleft/gpl.html" />
      </cc:Work>
    </rdf:RDF>
  </metadata>
  <path
     d="M 46.625,0 C 20.858329,0 0,20.88959 0,46.65625 0,72.42292 20.858329,93.3125 46.625,93.3125 c 21.298684,0 39.252235,-14.2775 44.84375,-33.78125 l -16.4375,0 C 70.123432,70.31896 59.250622,77.8125 46.625,77.8125 c -17.220933,0 -31.15625,-13.9353 -31.15625,-31.15625 0,-17.22093 13.935317,-31.21875 31.15625,-31.21875 12.251424,0 22.835195,7.09215 27.9375,17.375 l 16.65625,0 C 85.327333,13.7908 67.580688,0 46.625,0 z m 50.03125,28.0625 0,9.71875 -33.5625,0 c -3.077848,0 -5.5625,2.484652 -5.5625,5.5625 l 0,5.96875 c 0,3.077848 2.484652,5.53125 5.5625,5.53125 l 33.5625,0 0,10.40625 19.8125,-18.59375 -19.8125,-18.59375 z"
     style="fill:#1a1a1a"
     id="path10"
     inkscape:connector-curvature="0" />
</svg>
