<?xml version="1.0" encoding="UTF-8" standalone="no"?>
<svg
   xmlns:dc="http://purl.org/dc/elements/1.1/"
   xmlns:cc="http://creativecommons.org/ns#"
   xmlns:rdf="http://www.w3.org/1999/02/22-rdf-syntax-ns#"
   xmlns:svg="http://www.w3.org/2000/svg"
   xmlns="http://www.w3.org/2000/svg"
   xmlns:sodipodi="http://sodipodi.sourceforge.net/DTD/sodipodi-0.dtd"
   xmlns:inkscape="http://www.inkscape.org/namespaces/inkscape"
   width="110.2608"
   height="83.198257"
   version="1.1"
   id="svg2"
   inkscape:version="0.48.5 r10040"
   sodipodi:docname="main_menu.svg"
   inkscape:export-filename="/home/matheus/Dropbox/Freedom/PyLoca/src/views/uis/images/main_menu.png"
   inkscape:export-xdpi="18.389809"
   inkscape:export-ydpi="18.389809">
  <defs
     id="defs14" />
  <sodipodi:namedview
     pagecolor="#ffffff"
     bordercolor="#666666"
     borderopacity="1"
     objecttolerance="10"
     gridtolerance="10"
     guidetolerance="10"
     inkscape:pageopacity="0"
     inkscape:pageshadow="2"
     inkscape:window-width="1920"
     inkscape:window-height="1020"
     id="namedview12"
     showgrid="false"
     fit-margin-top="0"
     fit-margin-left="0"
     fit-margin-right="0"
     fit-margin-bottom="0"
     inkscape:zoom="2.6074563"
     inkscape:cx="156.81619"
     inkscape:cy="45.294587"
     inkscape:window-x="0"
     inkscape:window-y="0"
     inkscape:window-maximized="1"
     inkscape:current-layer="svg2" />
  <title
     id="title4">UI Icon</title>
  <desc
     id="desc6">This is shape (source) for Clarity vector icon theme for gtk</desc>
  <metadata
     id="metadata8">
    <rdf:RDF>
      <cc:Work
         rdf:about="">
        <dc:title>UI Icon</dc:title>
        <dc:description>This is shape (source) for Clarity vector icon theme for gtk</dc:description>
        <dc:creator>
          <cc:Agent>
            <dc:title>Jakub Jankiewicz</dc:title>
          </cc:Agent>
        </dc:creator>
        <dc:rights>
          <cc:Agent>
            <dc:title>Jakub Jankiewicz</dc:title>
          </cc:Agent>
        </dc:rights>
        <dc:date>2010</dc:date>
        <dc:format>image/svg+xml</dc:format>
        <dc:type
           rdf:resource="http://purl.org/dc/dcmitype/StillImage" />
        <cc:license
           rdf:resource="http://www.gnu.org/copyleft/gpl.html" />
      </cc:Work>
    </rdf:RDF>
  </metadata>
  <g
     id="g2998">
    <path
       inkscape:connector-curvature="0"
       id="path3011"
       d="M 2.4643456,0 C 1.1021424,0 0,1.064804 0,2.427007 l 0,18.669282 c 0,1.362203 1.1021424,2.464345 2.4643456,2.464345 l 107.7964544,0 0,-23.560634 z"
       style="fill:#1a1a1a" />
    <path
       inkscape:connector-curvature="0"
       id="path3009"
       d="m 7.7664216,6.310218 18.8933144,0 -9.446657,10.940199 z"
       style="fill:#ffffff" />
    <path
       inkscape:connector-curvature="0"
       id="path3007"
       d="M 2.4643456,28.683726 C 1.1021424,28.683726 0,29.74853 0,31.110732 l 0,49.623185 c 0,1.36219 1.1021424,2.46434 2.4643456,2.46434 l 50.5564174,0 c 1.362202,0 2.427006,-1.10215 2.427006,-2.46434 l 0,-49.623185 c 0,-1.362202 -1.064804,-2.427006 -2.427006,-2.427006 z"
       style="fill:#1a1a1a" />
    <path
       inkscape:connector-curvature="0"
       id="path3005"
       d="m 8.2144846,35.740714 39.0561394,0 c 1.362203,0 2.464345,1.102143 2.464345,2.464346 l 0,4.032565 c 0,1.362202 -1.102142,2.427006 -2.464345,2.427006 l -39.0561394,0 c -1.362203,0 -2.464345,-1.064804 -2.464345,-2.427006 l 0,-4.032565 c 0,-1.362203 1.102142,-2.464346 2.464345,-2.464346 z"
       style="fill:#ffffff" />
    <path
       inkscape:connector-curvature="0"
       id="path3003"
       d="m 41.333792,48.585181 8.401177,7.243681 -8.401177,7.206343 z"
       style="fill:#ffffff" />
    <path
       inkscape:connector-curvature="0"
       id="path3001"
       d="m 8.2144846,51.19888 25.0168384,0 c 1.362203,0 2.464346,1.102143 2.464346,2.464345 l 0,3.995227 c 0,1.362204 -1.102143,2.464345 -2.464346,2.464345 l -25.0168384,0 c -1.362203,0 -2.464345,-1.102141 -2.464345,-2.464345 l 0,-3.995227 c 0,-1.362202 1.102142,-2.464345 2.464345,-2.464345 z"
       style="fill:#ffffff" />
    <path
       inkscape:connector-curvature="0"
       id="path10"
       d="m 8.2144846,66.657046 39.0561394,0 c 1.362203,0 2.464345,1.102142 2.464345,2.464345 l 0,3.995227 c 0,1.362204 -1.102142,2.464345 -2.464345,2.464345 l -39.0561394,0 c -1.362203,0 -2.464345,-1.102141 -2.464345,-2.464345 l 0,-3.995227 c 0,-1.362203 1.102142,-2.464345 2.464345,-2.464345 z"
       style="fill:#ffffff" />
  </g>
</svg>
