<?xml version="1.0" encoding="UTF-8" standalone="no"?>
<svg
   xmlns:dc="http://purl.org/dc/elements/1.1/"
   xmlns:cc="http://creativecommons.org/ns#"
   xmlns:rdf="http://www.w3.org/1999/02/22-rdf-syntax-ns#"
   xmlns:svg="http://www.w3.org/2000/svg"
   xmlns="http://www.w3.org/2000/svg"
   xmlns:sodipodi="http://sodipodi.sourceforge.net/DTD/sodipodi-0.dtd"
   xmlns:inkscape="http://www.inkscape.org/namespaces/inkscape"
   width="108.1875"
   height="110.28126"
   version="1.1"
   id="svg2"
   inkscape:version="0.91 r13725"
   sodipodi:docname="message_error.svg"
   inkscape:export-filename="/home/matheus/Dropbox/Freedom/PyLoca/src/views/uis/images/message_error.png"
   inkscape:export-xdpi="26.931141"
   inkscape:export-ydpi="26.931141">
  <defs
     id="defs14" />
  <sodipodi:namedview
     pagecolor="#ffffff"
     bordercolor="#666666"
     borderopacity="1"
     objecttolerance="10"
     gridtolerance="10"
     guidetolerance="10"
     inkscape:pageopacity="0"
     inkscape:pageshadow="2"
     inkscape:window-width="1920"
     inkscape:window-height="1016"
     id="namedview12"
     showgrid="false"
     fit-margin-top="0"
     fit-margin-left="0"
     fit-margin-right="0"
     fit-margin-bottom="0"
     inkscape:zoom="1.84375"
     inkscape:cx="56.263242"
     inkscape:cy="55.14063"
     inkscape:window-x="0"
     inkscape:window-y="27"
     inkscape:window-maximized="1"
     inkscape:current-layer="svg2" />
  <title
     id="title4">Bang Warning Icon</title>
  <desc
     id="desc6">This is shape (source) for Clarity vector icon theme for gtk</desc>
  <metadata
     id="metadata8">
    <rdf:RDF>
      <cc:Work
         rdf:about="">
        <dc:title>Bang Warning Icon</dc:title>
        <dc:description>This is shape (source) for Clarity vector icon theme for gtk</dc:description>
        <dc:creator>
          <cc:Agent>
            <dc:title>Jakub Jankiewicz</dc:title>
          </cc:Agent>
        </dc:creator>
        <dc:rights>
          <cc:Agent>
            <dc:title>Jakub Jankiewicz</dc:title>
          </cc:Agent>
        </dc:rights>
        <dc:date>2010</dc:date>
        <dc:format>image/svg+xml</dc:format>
        <dc:type
           rdf:resource="http://purl.org/dc/dcmitype/StillImage" />
        <cc:license
           rdf:resource="http://www.gnu.org/copyleft/gpl.html" />
      </cc:Work>
    </rdf:RDF>
  </metadata>
  <path
     d="M 33,0 32.59375,25.875 1.6875,20.46875 28.84375,47.625 l -28,6.65625 22.5625,8.375 L 0,96.906255 34.25,84.375 35.9375,106.93751 54.3125,89.375 63.5,104.43751 67.6875,88.96875 102.34375,110.28126 83.96875,74.75 102.34375,75.1875 88.15625,62.21875 106.53125,50.9375 88.5625,43.03125 108.1875,0.8125 68.9375,19.625 64.75,5.84375 55.96875,19.21875 33,0 z m 21.625,23.25 c 2.475003,6.2e-5 4.406224,0.759426 5.8125,2.25 1.434366,1.490693 2.15623,3.465664 2.15625,5.96875 -2e-5,3.431323 -0.678135,8.125005 -2,14.03125 C 59.103099,52.306329 58.253111,56.934386 58,59.4375 c -0.05626,1.575034 -0.128137,3.178136 -0.15625,4.78125 -0.168766,2.137533 -0.731258,3.462514 -1.6875,3.96875 -0.36564,0.225018 -0.809384,0.343767 -1.34375,0.34375 -1.293769,1.7e-5 -2.059383,-1.037469 -2.3125,-3.0625 C 52.47187,65.271893 52.46874,63.784415 52.46875,61 c -1e-5,-5.118756 -1.118744,-12.471773 -3.3125,-22.0625 -0.843762,-3.740601 -1.250005,-6.19369 -1.25,-7.375 -5e-6,-2.137459 0.562487,-4.021807 1.6875,-5.625 1.265626,-1.799952 2.949976,-2.687438 5.03125,-2.6875 z m 0.03125,49.6875 c 1.743748,1.2e-5 3.234351,0.521879 4.5,1.5625 1.349992,1.125017 2.031232,2.565621 2.03125,4.28125 -1.8e-5,1.884392 -0.603134,3.41562 -1.8125,4.625 -1.181273,1.209384 -2.709376,1.8125 -4.59375,1.8125 -1.575021,0 -2.943751,-0.568742 -4.125,-1.75 -1.181265,-1.181255 -1.781256,-2.581235 -1.78125,-4.15625 -6e-6,-1.687504 0.559361,-3.140607 1.65625,-4.40625 1.096873,-1.293747 2.465603,-1.968738 4.125,-1.96875 z"
     style="fill:#ffffff"
     id="path10"
     inkscape:connector-curvature="0" />
</svg>
