<?xml version="1.0" encoding="UTF-8" standalone="no"?>
<svg
   xmlns:dc="http://purl.org/dc/elements/1.1/"
   xmlns:cc="http://creativecommons.org/ns#"
   xmlns:rdf="http://www.w3.org/1999/02/22-rdf-syntax-ns#"
   xmlns:svg="http://www.w3.org/2000/svg"
   xmlns="http://www.w3.org/2000/svg"
   xmlns:sodipodi="http://sodipodi.sourceforge.net/DTD/sodipodi-0.dtd"
   xmlns:inkscape="http://www.inkscape.org/namespaces/inkscape"
   width="107.9173"
   height="95.353905"
   version="1.1"
   id="svg2"
   inkscape:version="0.48.5 r10040"
   sodipodi:docname="persons.svg"
   inkscape:export-filename="/home/matheus/Dropbox/Freedom/PyLoca/src/views/uis/images/persons.png"
   inkscape:export-xdpi="13.213932"
   inkscape:export-ydpi="13.213932">
  <defs
     id="defs14" />
  <sodipodi:namedview
     pagecolor="#ffffff"
     bordercolor="#666666"
     borderopacity="1"
     objecttolerance="10"
     gridtolerance="10"
     guidetolerance="10"
     inkscape:pageopacity="0"
     inkscape:pageshadow="2"
     inkscape:window-width="1920"
     inkscape:window-height="1023"
     id="namedview12"
     showgrid="false"
     fit-margin-top="0"
     fit-margin-left="0"
     fit-margin-right="0"
     fit-margin-bottom="0"
     inkscape:zoom="1.84375"
     inkscape:cx="55.043397"
     inkscape:cy="47.67695"
     inkscape:window-x="0"
     inkscape:window-y="0"
     inkscape:window-maximized="1"
     inkscape:current-layer="svg2" />
  <title
     id="title4">MSN Communicator Icon</title>
  <desc
     id="desc6">This is shape (source) for Clarity vector icon theme for gtk</desc>
  <metadata
     id="metadata8">
    <rdf:RDF>
      <cc:Work
         rdf:about="">
        <dc:title>MSN Communicator Icon</dc:title>
        <dc:description>This is shape (source) for Clarity vector icon theme for gtk</dc:description>
        <dc:creator>
          <cc:Agent>
            <dc:title>Jakub Jankiewicz</dc:title>
          </cc:Agent>
        </dc:creator>
        <dc:rights>
          <cc:Agent>
            <dc:title>Jakub Jankiewicz</dc:title>
          </cc:Agent>
        </dc:rights>
        <dc:date>2010</dc:date>
        <dc:format>image/svg+xml</dc:format>
        <dc:type
           rdf:resource="http://purl.org/dc/dcmitype/StillImage" />
        <cc:license
           rdf:resource="http://www.gnu.org/copyleft/gpl.html" />
      </cc:Work>
    </rdf:RDF>
  </metadata>
  <path
     d="M 66.879389,0 C 58.273572,0 50.225686,4.357532 44.57372,11.246873 c -1.489569,-0.290313 -2.997802,-0.45138 -4.513795,-0.45138 -15.492544,0 -29.537919,15.783288 -28.060755,34.568141 0.912985,11.610266 5.49678,22.063149 12.52578,28.361676 l 0,3.498191 c -0.403147,2.127486 -1.950038,3.554798 -4.25049,4.70187 -2.300451,1.147068 -5.275103,1.942434 -8.237673,2.821114 -2.962573,0.87869 -5.93531,1.81431 -8.200062,3.31012 C 1.571972,89.552425 0,91.712795 0,94.752075 l 0,0.60183 0.60184,0 78.239102,0 0.60184,0 0,-0.60183 c 0,-2.81738 -1.653293,-4.76287 -3.94957,-6.09362 -0.155278,-0.09 -0.327708,-0.17778 -0.488994,-0.26331 l 30.693802,0 2.21928,0 0,-2.21928 c 0,-3.430049 -2.20413,-5.995281 -4.77709,-7.485381 -2.57298,-1.490097 -5.615889,-2.346845 -8.538609,-3.197271 -2.92271,-0.850425 -5.709718,-1.722737 -7.522982,-2.82112 -1.813267,-1.098384 -2.595434,-2.00722 -2.595434,-3.911956 l 0,-2.896352 C 91.373181,59.02275 95.746131,48.582489 97.197041,37.050731 99.724951,16.958881 83.884509,0 66.879389,0 z m 0,4.438566 c 13.979968,0 28.077642,14.611438 25.879082,32.085555 -1.40541,11.170213 -5.736902,21.127667 -11.999166,26.932308 l -0.714685,0.639455 0,0.977988 0,3.686265 c 0,3.51073 2.158853,6.185465 4.739485,7.748682 2.580634,1.563213 5.640386,2.418259 8.576206,3.272498 2.93582,0.854242 5.73968,1.691327 7.560609,2.745891 0.82325,0.476773 1.3573,0.93692 1.7679,1.429367 l -40.586531,0 c -0.982174,-0.384547 -1.913825,-0.797329 -2.708277,-1.278902 -2.090842,-1.267408 -3.34773,-2.850386 -3.34773,-5.341328 l 0,-4.25049 C 62.508868,66.732009 66.709034,56.583402 68.12068,45.363634 70.00177,30.412732 60.908329,17.37944 49.313203,12.676242 54.09124,7.578263 60.408593,4.438566 66.879389,4.438566 z"
     style="fill:#aaaaaa"
     id="path10"
     inkscape:connector-curvature="0" />
  <path
     style="fill:#1a1a1a"
     d="m 0.659428,93.212735 c 0.353124,-2.17605 1.973954,-4.20355 4.347228,-5.43799 0.848606,-0.44139 4.706818,-1.88625 8.573803,-3.21079 3.866986,-1.324548 7.639384,-2.806973 8.383107,-3.294279 2.924769,-1.916382 3.908995,-6.727289 1.767766,-8.640862 -2.344199,-2.09497 -6.454731,-8.605451 -8.057836,-12.762441 -2.250844,-5.836637 -3.260608,-11.025143 -3.260608,-16.754112 0,-6.350098 0.72685,-9.612385 3.381646,-15.177679 C 20.822755,17.393836 31.471289,10.45612 41.398698,11.252997 l 3.368351,0.270379 2.370793,-2.436302 C 58.459473,-2.54739 75.172297,-2.490575 87.03883,9.222718 c 4.529111,4.470619 7.286491,9.156005 8.936551,15.185091 3.05498,11.162483 -1.40081,29.246172 -9.549899,38.757992 -2.390367,2.790107 -2.517283,3.096271 -2.21069,5.333115 0.178896,1.305193 0.466468,2.601551 0.639051,2.880792 0.554994,0.898001 5.301068,3.058847 9.471028,4.31207 8.677689,2.607962 12.099629,4.969763 13.033789,8.995817 0.26729,1.15194 0.4918,2.39953 0.49891,2.77241 0.0101,0.52759 -3.68631,0.68178 -16.665019,0.69515 l -16.677968,0.0172 1.506712,1.12386 c 1.59328,1.18844 3.103458,3.64687 3.103458,5.05213 0,0.75135 -4.177524,0.84048 -39.392999,0.84048 l -39.393,0 0.320674,-1.97608 z M 101.82664,83.044038 C 101.0381,82.349367 97.865221,80.981915 94.775791,80.005253 83.742976,76.517449 80.907456,74.174647 80.355809,68.090992 c -0.290121,-3.199512 -0.285467,-3.212084 2.252475,-6.088049 3.207539,-3.63475 7.583037,-12.409072 9.010167,-18.068361 1.59357,-6.319332 1.91423,-12.750497 0.85885,-17.225183 C 89.635093,14.658743 80.054998,5.623791 68.704994,4.28982 65.402534,3.901681 60.2997,5.000539 56.430038,6.933143 c -2.357548,1.177415 -7.13705,5.013007 -7.134505,5.7255 7.05e-4,0.198377 1.404099,1.091649 3.118644,1.985049 6.373556,3.321079 12.181827,10.900535 14.54916,18.985805 2.884702,9.852288 -1.63277,28.398064 -8.937969,36.693397 -2.071164,2.351892 -2.222649,2.744277 -2.222649,5.757364 0,3.727555 1.029369,5.461896 4.252301,7.164523 1.86074,0.983004 3.275037,1.049064 22.595156,1.055464 l 20.610164,0.007 -1.4337,-1.263047 z"
     id="path2991"
     inkscape:connector-curvature="0" />
</svg>
