<?xml version="1.0" encoding="UTF-8" standalone="no"?>
<svg
   xmlns:dc="http://purl.org/dc/elements/1.1/"
   xmlns:cc="http://creativecommons.org/ns#"
   xmlns:rdf="http://www.w3.org/1999/02/22-rdf-syntax-ns#"
   xmlns:svg="http://www.w3.org/2000/svg"
   xmlns="http://www.w3.org/2000/svg"
   xmlns:sodipodi="http://sodipodi.sourceforge.net/DTD/sodipodi-0.dtd"
   xmlns:inkscape="http://www.inkscape.org/namespaces/inkscape"
   width="92.551842"
   height="93.695801"
   version="1.1"
   id="svg2"
   inkscape:version="0.48.5 r10040"
   sodipodi:docname="movimentacao.svg"
   inkscape:export-filename="/home/matheus/Dropbox/Freedom/PyLoca/src/views/uis/images/movimentacao.png"
   inkscape:export-xdpi="15.558847"
   inkscape:export-ydpi="15.558847">
  <defs
     id="defs14" />
  <sodipodi:namedview
     pagecolor="#ffffff"
     bordercolor="#666666"
     borderopacity="1"
     objecttolerance="10"
     gridtolerance="10"
     guidetolerance="10"
     inkscape:pageopacity="0"
     inkscape:pageshadow="2"
     inkscape:window-width="1920"
     inkscape:window-height="1023"
     id="namedview12"
     showgrid="false"
     inkscape:zoom="1.84375"
     inkscape:cx="47.511865"
     inkscape:cy="46.96949"
     inkscape:window-x="0"
     inkscape:window-y="0"
     inkscape:window-maximized="1"
     inkscape:current-layer="svg2"
     fit-margin-top="0"
     fit-margin-left="0"
     fit-margin-right="0"
     fit-margin-bottom="0" />
  <title
     id="title4">Film Icon</title>
  <desc
     id="desc6">This is shape (source) for Clarity vector icon theme for gtk</desc>
  <metadata
     id="metadata8">
    <rdf:RDF>
      <cc:Work
         rdf:about="">
        <dc:title>Film Icon</dc:title>
        <dc:description>This is shape (source) for Clarity vector icon theme for gtk</dc:description>
        <dc:creator>
          <cc:Agent>
            <dc:title>Jakub Jankiewicz</dc:title>
          </cc:Agent>
        </dc:creator>
        <dc:rights>
          <cc:Agent>
            <dc:title>Jakub Jankiewicz</dc:title>
          </cc:Agent>
        </dc:rights>
        <dc:date>2010</dc:date>
        <dc:format>image/svg+xml</dc:format>
        <dc:type
           rdf:resource="http://purl.org/dc/dcmitype/StillImage" />
        <cc:license
           rdf:resource="http://www.gnu.org/copyleft/gpl.html" />
      </cc:Work>
    </rdf:RDF>
  </metadata>
  <path
     d="m 4.395869,-0.336191 -3.9375,14.71875 65.53125,17.5625 -66.375,0 0,61.84375 91.96875,0 0,-61.84375 -0.59375,0 2.25,-8.46875 -88.84375,-23.8125 z m 7.1875,5.34375 7.5,2 -2.09375,8.40625 -7.4375,-2 2.03125,-8.40625 z m 12.53125,3.34375 7.46875,2 -2.0625,8.40625 -7.5,-2 2.09375,-8.40625 z m 12.5,3.375 7.5,2 -2.09375,8.375 -7.46875,-2 2.0625,-8.375 z m 12.53125,3.34375 7.4375,2 -2.03125,8.40625 -7.5,-2 2.09375,-8.40625 z m 12.5,3.34375 7.46875,2 -2.0625,8.40625 -7.5,-2 2.09375,-8.40625 z m 20.96875,8.03125 c 1.61263,0 2.9375,1.29362 2.9375,2.90625 0,1.61263 -1.32487,2.90625 -2.9375,2.90625 -1.61263,0 -2.90625,-1.29362 -2.90625,-2.90625 0,-1.61263 1.29362,-2.90625 2.90625,-2.90625 z m -74.6875,12.03125 7.75,0 4.75,11.3125 -7.71875,0 -4.78125,-11.3125 z m 12.96875,0 7.71875,0 4.78125,11.3125 -7.75,0 -4.75,-11.3125 z m 12.9375,0 7.75,0 4.75,11.3125 -7.71875,0 -4.78125,-11.3125 z m 12.96875,0 7.71875,0 4.78125,11.3125 -7.75,0 -4.75,-11.3125 z m 12.9375,0 7.75,0 4.75,11.3125 -7.75,0 -4.75,-11.3125 z m -51.8125,23.28125 64.3125,0 0,5.96875 -64.3125,0 0,-5.96875 z m 0,16.09375 64.3125,0 0,5.9375 -64.3125,0 0,-5.9375 z"
     style="fill:#aaaaaa"
     id="path10"
     inkscape:connector-curvature="0" />
  <path
     style="fill:#1a1a1a"
     d="m 0,63.051733 0,-30.644068 33.193221,0 c 19.033858,0 32.973423,-0.202729 32.677966,-0.475251 C 65.587797,31.671027 50.894916,27.593581 33.220339,22.871424 15.545763,18.149267 1.086411,14.030926 1.088445,13.719556 1.090445,13.408186 1.8837,10.193907 2.851157,6.576714 L 4.61017,0 48.361586,11.72926 c 24.063277,6.451093 43.916373,11.894211 44.117973,12.095818 0.20161,0.201607 -0.0332,1.741691 -0.5218,3.422408 -0.77991,2.682801 -0.88393,6.925243 -0.85206,34.752081 l 0.0363,31.696232 -45.570991,0 -45.570998,0 0,-30.644066 z m 72.677966,17.627118 0,-3.254237 -32.542372,0 -32.542373,0 0,3.254237 0,3.254238 32.542373,0 32.542372,0 0,-3.254238 z m -0.108528,-15.864406 0.162663,-3.118644 -32.569441,0 -32.569439,0 0,3.258505 0,3.258506 L 40,68.07295 72.40678,67.933089 72.569438,64.814445 z M 20.285516,49.850109 C 20.440471,49.599386 19.539621,46.91728 18.283627,43.889873 L 16,38.385498 l -4.210668,-0.0059 -4.210669,-0.0059 0.746688,1.762711 c 0.410678,0.969492 1.415706,3.349153 2.233396,5.288136 0.817691,1.938983 1.73518,3.830509 2.038867,4.20339 0.623628,0.765722 7.233901,0.956695 7.687902,0.222105 l 0,0 z m 12.996889,0.03246 c 0.274987,-0.44494 -3.71324,-10.359977 -4.472673,-11.11941 -0.242147,-0.242147 -2.169021,-0.367803 -4.281943,-0.279236 l -3.841676,0.16103 2.238281,5.423729 c 1.231054,2.983051 2.495323,5.603042 2.809486,5.822203 0.766149,0.534468 7.217459,0.527359 7.548525,-0.0083 l 0,0 z m 13.01202,0.008 c 0.141211,-0.22851 -0.782602,-2.852239 -2.052917,-5.830534 l -2.309665,-5.415082 -4.152362,-0.158408 c -2.283799,-0.08712 -4.152362,-0.04774 -4.152362,0.08753 0,0.135267 0.87739,2.281126 1.949754,4.768577 1.072365,2.487452 2.164629,5.071792 2.427254,5.742978 0.431603,1.103042 0.840636,1.220339 4.255525,1.220339 2.077914,0 3.893561,-0.186942 4.034773,-0.415427 l 0,0 z m 12.953706,0.105152 c 0.170646,-0.170651 -0.727784,-2.79438 -1.996513,-5.830509 L 54.94483,38.644953 50.794449,38.486545 c -2.28271,-0.08712 -4.150381,-0.05449 -4.150381,0.07253 0,0.276362 4.340847,10.756335 4.697122,11.340116 0.28792,0.471777 7.444324,0.559122 7.906941,0.0965 l 0,0 z m 13.002635,0.01431 c 0.162783,-0.16278 -0.761545,-2.786509 -2.054063,-5.830508 l -2.350026,-5.534547 -4.092833,-0.158408 c -2.251053,-0.08712 -4.092827,-0.01229 -4.092827,0.166295 0,0.395748 3.70208,9.378283 4.411558,10.703977 0.407301,0.761062 1.238633,0.949153 4.195097,0.949153 2.027922,0 3.820312,-0.133184 3.983094,-0.295964 l 0,2e-6 z M 84.842619,31.555364 c 1.90141,-1.90141 0.61907,-5.113801 -2.04136,-5.113801 -2.237652,0 -3.072445,0.832655 -3.072445,3.064575 0,2.667005 3.209785,3.953245 5.113805,2.049226 z M 67.812215,26.848343 c 0.329887,-1.267797 0.843471,-3.244976 1.141299,-4.393731 0.297833,-1.148756 0.46445,-2.150554 0.370267,-2.22622 -0.428437,-0.344202 -7.532963,-2.063358 -7.72557,-1.869436 -0.119198,0.12001 -0.698528,2.100353 -1.287404,4.400762 l -1.070687,4.182561 3.057909,0.862003 c 1.681844,0.474101 3.301971,0.952342 3.600276,1.062755 1.140329,0.422078 1.3312,0.220752 1.91391,-2.018694 l 0,0 z M 55.644567,22.022149 c 0.436941,-1.894746 0.91674,-3.843978 1.066218,-4.331627 0.217508,-0.709577 -0.49485,-1.074507 -3.567214,-1.827429 -2.111448,-0.517436 -3.968153,-0.811637 -4.126011,-0.653779 -0.411875,0.411876 -2.364895,8.167399 -2.11873,8.413564 0.289929,0.28993 7.572774,2.142019 7.780471,1.97864 0.09395,-0.07391 0.528325,-1.684623 0.965266,-3.579369 z M 42.861273,19.797495 c 0.3289,-1.267796 0.819827,-3.145598 1.09095,-4.172892 0.271124,-1.027295 0.434989,-1.925771 0.364146,-1.996614 -0.07084,-0.07084 -1.870647,-0.611495 -3.999563,-1.201448 L 36.446048,11.3539 35.55536,14.965528 c -0.489878,1.986396 -1.009618,4.010606 -1.154978,4.498244 -0.20636,0.692273 0.422964,1.066853 2.871053,1.708881 4.788172,1.255729 4.91544,1.224419 5.589838,-1.375158 z m -12.567455,-2.98305 c 0.277816,-1.118644 0.747096,-3.062084 1.042846,-4.318756 L 31.87439,10.210833 28.818551,9.346339 C 27.13784,8.870868 25.34834,8.361228 24.841886,8.213807 c -0.704403,-0.205042 -1.05496,0.248338 -1.491526,1.929011 -0.313884,1.208378 -0.830808,3.197958 -1.148719,4.42129 -0.317911,1.223332 -0.500962,2.28317 -0.40678,2.355195 0.381172,0.291501 6.201688,1.84457 7.06559,1.885288 0.63608,0.02998 1.087234,-0.59642 1.433367,-1.990146 z m -11.97303,-5.596607 c 0.787529,-3.135888 0.921839,-4.435703 0.473867,-4.585966 -1.899138,-0.63703 -7.116701,-1.811765 -7.28765,-1.640816 -0.524291,0.524291 -2.197343,8.196101 -1.859062,8.524759 0.376598,0.365885 5.747408,1.930946 6.962936,2.029008 0.335983,0.02711 1.105442,-1.920038 1.709909,-4.326985 z"
     id="path2991"
     inkscape:connector-curvature="0" />
</svg>
