<?xml version="1.0" encoding="UTF-8" standalone="no"?>
<svg
   xmlns:dc="http://purl.org/dc/elements/1.1/"
   xmlns:cc="http://creativecommons.org/ns#"
   xmlns:rdf="http://www.w3.org/1999/02/22-rdf-syntax-ns#"
   xmlns:svg="http://www.w3.org/2000/svg"
   xmlns="http://www.w3.org/2000/svg"
   xmlns:sodipodi="http://sodipodi.sourceforge.net/DTD/sodipodi-0.dtd"
   xmlns:inkscape="http://www.inkscape.org/namespaces/inkscape"
   width="102.88333"
   height="99.569504"
   version="1.1"
   id="svg2"
   inkscape:version="0.48.5 r10040"
   sodipodi:docname="save.svg"
   inkscape:export-filename="/home/matheus/Dropbox/Freedom/PyLoca/src/views/uis/images/save.png"
   inkscape:export-xdpi="18.981716"
   inkscape:export-ydpi="18.981716">
  <defs
     id="defs14" />
  <sodipodi:namedview
     pagecolor="#ffffff"
     bordercolor="#666666"
     borderopacity="1"
     objecttolerance="10"
     gridtolerance="10"
     guidetolerance="10"
     inkscape:pageopacity="0"
     inkscape:pageshadow="2"
     inkscape:window-width="1920"
     inkscape:window-height="1023"
     id="namedview12"
     showgrid="false"
     fit-margin-top="0"
     fit-margin-left="0"
     fit-margin-right="0"
     fit-margin-bottom="0"
     inkscape:zoom="1.84375"
     inkscape:cx="52.507979"
     inkscape:cy="49.81751"
     inkscape:window-x="0"
     inkscape:window-y="0"
     inkscape:window-maximized="1"
     inkscape:current-layer="svg2" />
  <title
     id="title4">Clarity Icon</title>
  <desc
     id="desc6">This is shape (source) for Clarity vector icon theme for gtk</desc>
  <metadata
     id="metadata8">
    <rdf:RDF>
      <cc:Work
         rdf:about="">
        <dc:title>Clarity Icon</dc:title>
        <dc:description>This is shape (source) for Clarity vector icon theme for gtk</dc:description>
        <dc:creator>
          <cc:Agent>
            <dc:title>Jakub Jankiewicz</dc:title>
          </cc:Agent>
        </dc:creator>
        <dc:rights>
          <cc:Agent>
            <dc:title>Jakub Jankiewicz</dc:title>
          </cc:Agent>
        </dc:rights>
        <dc:date>2010</dc:date>
        <dc:format>image/svg+xml</dc:format>
        <dc:type
           rdf:resource="http://purl.org/dc/dcmitype/StillImage" />
        <cc:license
           rdf:resource="http://www.gnu.org/copyleft/gpl.html" />
      </cc:Work>
    </rdf:RDF>
  </metadata>
  <path
     d="M 7.12317,0 C 3.16041,0 0,3.160405 0,7.123169 L 0,80.99434 c 0,1.773366 0.58862,2.346919 1.61625,3.374548 l 13.90492,13.904916 c 1.05639,1.05639 1.87534,1.2957 3.23955,1.2957 l 76.968473,0 c 3.96276,0 7.154137,-3.19137 7.154137,-7.15414 l 0,-85.292195 C 102.88333,3.160405 99.691953,0 95.729193,0 z m 7.37093,10.870575 73.895133,0 0,34.438972 -73.895133,0 z m 13.28626,46.393508 42.92483,0 c 3.96276,0 7.15414,3.191375 7.15414,7.154139 l 0,20.378456 c 0,3.962756 -3.19138,7.154136 -7.15414,7.154136 l -42.92483,0 c -3.96276,0 -7.12317,-3.19138 -7.12317,-7.154136 l 0,-20.378456 c 0,-3.962764 3.16041,-7.154139 7.12317,-7.154139 z m 2.94217,2.849267 0,23.878101 15.08254,0 0,-23.878101 z"
     style="fill:#1a1a1a"
     id="path10"
     inkscape:connector-curvature="0" />
</svg>
