<?xml version="1.0" encoding="UTF-8" standalone="no"?>
<svg
   xmlns:dc="http://purl.org/dc/elements/1.1/"
   xmlns:cc="http://creativecommons.org/ns#"
   xmlns:rdf="http://www.w3.org/1999/02/22-rdf-syntax-ns#"
   xmlns:svg="http://www.w3.org/2000/svg"
   xmlns="http://www.w3.org/2000/svg"
   xmlns:sodipodi="http://sodipodi.sourceforge.net/DTD/sodipodi-0.dtd"
   xmlns:inkscape="http://www.inkscape.org/namespaces/inkscape"
   width="86.773178"
   height="104.02186"
   version="1.1"
   id="svg2"
   inkscape:version="0.48.5 r10040"
   sodipodi:docname="transactions.svg"
   inkscape:export-filename="/home/matheus/Dropbox/Freedom/PyLoca/src/views/uis/images/transactions.png"
   inkscape:export-xdpi="13.483429"
   inkscape:export-ydpi="13.483429">
  <defs
     id="defs14" />
  <sodipodi:namedview
     pagecolor="#ffffff"
     bordercolor="#666666"
     borderopacity="1"
     objecttolerance="10"
     gridtolerance="10"
     guidetolerance="10"
     inkscape:pageopacity="0"
     inkscape:pageshadow="2"
     inkscape:window-width="1920"
     inkscape:window-height="1023"
     id="namedview12"
     showgrid="false"
     inkscape:zoom="1.84375"
     inkscape:cx="-120.7077"
     inkscape:cy="87.720627"
     inkscape:window-x="0"
     inkscape:window-y="0"
     inkscape:window-maximized="1"
     inkscape:current-layer="svg2"
     fit-margin-top="0"
     fit-margin-left="0"
     fit-margin-right="0"
     fit-margin-bottom="0" />
  <title
     id="title4">Clarity Icon</title>
  <desc
     id="desc6">This is shape (source) for Clarity vector icon theme for gtk</desc>
  <metadata
     id="metadata8">
    <rdf:RDF>
      <cc:Work
         rdf:about="">
        <dc:title>Clarity Icon</dc:title>
        <dc:description>This is shape (source) for Clarity vector icon theme for gtk</dc:description>
        <dc:creator>
          <cc:Agent>
            <dc:title>Jakub Jankiewicz</dc:title>
          </cc:Agent>
        </dc:creator>
        <dc:rights>
          <cc:Agent>
            <dc:title>Jakub Jankiewicz</dc:title>
          </cc:Agent>
        </dc:rights>
        <dc:date>2010</dc:date>
        <dc:format>image/svg+xml</dc:format>
        <dc:type
           rdf:resource="http://purl.org/dc/dcmitype/StillImage" />
        <cc:license
           rdf:resource="http://www.gnu.org/copyleft/gpl.html" />
      </cc:Work>
    </rdf:RDF>
  </metadata>
  <path
     d="M 86.773178,0 0,0 l 0,4.89982 3.74109,0 c 0.95498,0 1.72155,0.766576 1.72155,1.721558 l 0,7.482159 c 0,0.954984 -0.76657,1.721558 -1.72155,1.721558 l -3.74109,0 0,4.866715 5.7606,0 c 4.138278,0 7.449054,3.34388 7.449054,7.482158 l 0,47.673931 c 0,4.138278 -3.310776,7.482158 -7.449054,7.482158 l -5.7606,0 0,4.89981 3.74109,0 c 0.95498,0 1.72155,0.76658 1.72155,1.72156 l 0,7.44905 c 0,0.95499 -0.76657,1.72156 -1.72155,1.72156 l -3.74109,0 0,4.899823 86.773178,0 0,-4.899823 -3.74108,0 c -0.95499,0 -1.72156,-0.76657 -1.72156,-1.72156 l 0,-7.44905 c 0,-0.95498 0.76657,-1.72156 1.72156,-1.72156 l 3.74108,0 0,-4.89981 -5.7606,0 c -4.138277,0 -7.449053,-3.34388 -7.449053,-7.482158 l 0,-47.673931 c 0,-4.138278 3.310776,-7.482158 7.449053,-7.482158 l 5.7606,0 0,-4.866715 -3.74108,0 c -0.95499,0 -1.72156,-0.766574 -1.72156,-1.721558 l 0,-7.482159 c 0,-0.954982 0.76657,-1.721558 1.72156,-1.721558 l 3.74108,0 0,-4.89982 z m -9.965177,6.621378 0,7.482159 c 0,0.954984 -0.766571,1.721558 -1.721558,1.721558 l -6.323418,0 c -0.954987,0 -1.721559,-0.766574 -1.721559,-1.721558 l 0,-7.482159 c 0,-0.954982 0.766572,-1.721558 1.721559,-1.721558 l 6.323418,0 c 0.954987,0 1.721558,0.766576 1.721558,1.721558 z m 0,83.330049 0,7.44905 c 0,0.95499 -0.766571,1.72156 -1.721558,1.72156 l -6.323418,0 c -0.954987,0 -1.721559,-0.76657 -1.721559,-1.72156 l 0,-7.44905 c 0,-0.95498 0.766572,-1.72156 1.721559,-1.72156 l 6.323418,0 c 0.954987,0 1.721558,0.76658 1.721558,1.72156 z m -11.587412,-61.777459 0,47.673931 c 0,4.138278 -3.310776,7.482158 -7.449054,7.482158 l -28.736785,0 c -4.138278,0 -7.482158,-3.34388 -7.482158,-7.482158 l 0,-47.673931 c 0,-4.138278 3.34388,-7.482158 7.482158,-7.482158 l 28.736785,0 c 4.138278,0 7.449054,3.34388 7.449054,7.482158 z m -2.681661,-21.55259 0,7.482159 c 0,0.954984 -0.76657,1.721558 -1.721557,1.721558 l -6.323418,0 c -0.954987,0 -1.721559,-0.766574 -1.721559,-1.721558 l 0,-7.482159 c 0,-0.954982 0.766572,-1.721558 1.721559,-1.721558 l 6.323419,0 c 0.954987,0 1.721557,0.766576 1.721557,1.721558 z m 0,83.330049 0,7.44905 c 0,0.95499 -0.76657,1.72156 -1.721557,1.72156 l -6.323418,0 c -0.954987,0 -1.721559,-0.76657 -1.721559,-1.72156 l 0,-7.44905 c 0,-0.95498 0.766572,-1.72156 1.721559,-1.72156 l 6.323419,0 c 0.954987,0 1.721557,0.76658 1.721557,1.72156 z M 48.269856,6.621378 l 0,7.482159 c 0,0.954984 -0.766571,1.721558 -1.721558,1.721558 l -6.323417,0 c -0.954988,0 -1.72156,-0.766574 -1.72156,-1.721558 l 0,-7.482159 c 0,-0.954982 0.766572,-1.721558 1.72156,-1.721558 l 6.323417,0 c 0.954987,0 1.721558,0.766576 1.721558,1.721558 z m 0,83.330049 0,7.44905 c 0,0.95499 -0.766571,1.72156 -1.721558,1.72156 l -6.323417,0 c -0.954988,0 -1.72156,-0.76657 -1.72156,-1.72156 l 0,-7.44905 c 0,-0.95498 0.766572,-1.72156 1.72156,-1.72156 l 6.323417,0 c 0.954987,0 1.721558,0.76658 1.721558,1.72156 z M 34.000783,6.621378 l 0,7.482159 c 0,0.954984 -0.766569,1.721558 -1.721557,1.721558 l -6.323417,0 c -0.954988,0 -1.72156,-0.766574 -1.72156,-1.721558 l 0,-7.482159 c 0,-0.954982 0.766572,-1.721558 1.72156,-1.721558 l 6.323417,0 c 0.954988,0 1.721557,0.766576 1.721557,1.721558 z m 0,83.330049 0,7.44905 c 0,0.95499 -0.766569,1.72156 -1.721557,1.72156 l -6.323417,0 c -0.954988,0 -1.72156,-0.76657 -1.72156,-1.72156 l 0,-7.44905 c 0,-0.95498 0.766572,-1.72156 1.72156,-1.72156 l 6.323417,0 c 0.954988,0 1.721557,0.76658 1.721557,1.72156 z M 19.731711,6.621378 l 0,7.482159 c 0,0.954984 -0.76657,1.721558 -1.721558,1.721558 l -6.323417,0 c -0.954991,0 -1.721558,-0.766574 -1.721558,-1.721558 l 0,-7.482159 c 0,-0.954982 0.766567,-1.721558 1.721558,-1.721558 l 6.323417,0 c 0.954988,0 1.721558,0.766576 1.721558,1.721558 z m 0,83.330049 0,7.44905 c 0,0.95499 -0.76657,1.72156 -1.721558,1.72156 l -6.323417,0 c -0.954991,0 -1.721558,-0.76657 -1.721558,-1.72156 l 0,-7.44905 c 0,-0.95498 0.766567,-1.72156 1.721558,-1.72156 l 6.323417,0 c 0.954988,0 1.721558,0.76658 1.721558,1.72156 z"
     style="fill:#1a1a1a"
     id="path10"
     inkscape:connector-curvature="0" />
  <text
     xml:space="preserve"
     style="font-size:91.19159698px;font-style:normal;font-weight:normal;line-height:125%;letter-spacing:0px;word-spacing:0px;fill:#1a1a1a;fill-opacity:1;stroke:none;font-family:Sans"
     x="30.877741"
     y="71.252144"
     id="text2991"
     sodipodi:linespacing="125%"
     transform="scale(0.86066349,1.1618943)"
     inkscape:transform-center-y="-9.204373"><tspan
       sodipodi:role="line"
       id="tspan2993"
       x="30.877741"
       y="71.252144"
       style="font-size:91.19159698px;font-style:normal;font-variant:normal;font-weight:bold;font-stretch:normal;text-align:start;line-height:125%;writing-mode:lr-tb;text-anchor:start;font-family:Dyuthi;-inkscape-font-specification:Dyuthi Bold">$</tspan></text>
</svg>
