<?xml version="1.0" encoding="UTF-8" standalone="no"?>
<svg
   xmlns:dc="http://purl.org/dc/elements/1.1/"
   xmlns:cc="http://creativecommons.org/ns#"
   xmlns:rdf="http://www.w3.org/1999/02/22-rdf-syntax-ns#"
   xmlns:svg="http://www.w3.org/2000/svg"
   xmlns="http://www.w3.org/2000/svg"
   xmlns:sodipodi="http://sodipodi.sourceforge.net/DTD/sodipodi-0.dtd"
   xmlns:inkscape="http://www.inkscape.org/namespaces/inkscape"
   width="101.04341"
   height="100.19966"
   version="1.1"
   id="svg2"
   inkscape:version="0.91 r13725"
   sodipodi:docname="find.svg"
   inkscape:export-filename="/home/matheus/Dropbox/Freedom/PyLoca/src/views/uis/images/find.png"
   inkscape:export-xdpi="14.371306"
   inkscape:export-ydpi="14.371306">
  <defs
     id="defs14" />
  <sodipodi:namedview
     pagecolor="#ffffff"
     bordercolor="#666666"
     borderopacity="1"
     objecttolerance="10"
     gridtolerance="10"
     guidetolerance="10"
     inkscape:pageopacity="0"
     inkscape:pageshadow="2"
     inkscape:window-width="1920"
     inkscape:window-height="1016"
     id="namedview12"
     showgrid="false"
     fit-margin-top="0"
     fit-margin-left="0"
     fit-margin-right="0"
     fit-margin-bottom="0"
     inkscape:zoom="1.84375"
     inkscape:cx="52.656563"
     inkscape:cy="50.100192"
     inkscape:window-x="0"
     inkscape:window-y="27"
     inkscape:window-maximized="1"
     inkscape:current-layer="svg2" />
  <title
     id="title4">Clarity Icon</title>
  <desc
     id="desc6">This is shape (source) for Clarity vector icon theme for gtk</desc>
  <metadata
     id="metadata8">
    <rdf:RDF>
      <cc:Work
         rdf:about="">
        <dc:title>Clarity Icon</dc:title>
        <dc:description>This is shape (source) for Clarity vector icon theme for gtk</dc:description>
        <dc:creator>
          <cc:Agent>
            <dc:title>Jakub Jankiewicz</dc:title>
          </cc:Agent>
        </dc:creator>
        <dc:rights>
          <cc:Agent>
            <dc:title>Jakub Jankiewicz</dc:title>
          </cc:Agent>
        </dc:rights>
        <dc:date>2010</dc:date>
        <dc:format>image/svg+xml</dc:format>
        <dc:type
           rdf:resource="http://purl.org/dc/dcmitype/StillImage" />
        <cc:license
           rdf:resource="http://www.gnu.org/copyleft/gpl.html" />
      </cc:Work>
    </rdf:RDF>
  </metadata>
  <path
     d="M 33.874997,0 C 15.23563,0 0,15.235624 0,33.875 c 0,18.639377 15.23563,33.90625 33.874997,33.90625 7.3803,0 14.22557,-2.423045 19.8125,-6.46875 l 6.59375,6.59375 c -1.54932,2.87563 -1.12148,6.53477 1.3125,8.96875 l 21.09375,21.093745 c 2.97455,2.974545 7.775454,2.974545 10.750004,0 l 5.375,-5.375 c 2.974549,-2.97454 2.974549,-7.775453 0,-10.749998 L 77.718747,60.75 c -2.43398,-2.43398 -6.09312,-2.861822 -8.96875,-1.3125 l -6.71875,-6.71875 c 3.6395,-5.397165 5.78125,-11.884607 5.78125,-18.84375 C 67.812497,15.235624 52.514377,0 33.874997,0 z m 0,13.25 c 11.46525,0 20.65625,9.159751 20.65625,20.625 0,11.46525 -9.191,20.625 -20.65625,20.625 -11.465237,0 -20.593747,-9.15975 -20.593747,-20.625 0,-11.465249 9.12851,-20.625 20.593747,-20.625 z"
     style="fill:#1a1a1a"
     id="path10"
     inkscape:connector-curvature="0" />
</svg>
